<?xml version="1.0" encoding="utf-8"?>
<!-- Svg Vector Icons : http://www.onlinewebfonts.com/icon -->
<!DOCTYPE svg PUBLIC "-//W3C//DTD SVG 1.1//EN" "http://www.w3.org/Graphics/SVG/1.1/DTD/svg11.dtd">
<svg version="1.1" xmlns="http://www.w3.org/2000/svg" xmlns:xlink="http://www.w3.org/1999/xlink" x="0px" y="0px" viewBox="0 0 1000 1000" enable-background="new 0 0 1000 1000" xml:space="preserve">
<metadata> Svg Vector Icons : http://www.onlinewebfonts.com/icon </metadata>
<g><path d="M663.3,865.5H10V117.1h653.3V865.5L663.3,865.5z M602.2,803.4V179.3h-531v624.1L602.2,803.4L602.2,803.4z M204.4,335.7c-16.8,0-30.6-13.7-30.6-30.6c0-16.9,13.7-30.6,30.6-30.6h275.3c16.9,0,30.6,13.7,30.6,30.6c0,16.9-13.7,30.6-30.6,30.6H204.4L204.4,335.7z M204.4,512.7c-16.8,0-30.6-13.7-30.6-30.6c0-16.9,13.7-30.6,30.6-30.6h275.3c16.9,0,30.6,13.7,30.6,30.6c0,16.9-13.7,30.6-30.6,30.6H204.4L204.4,512.7z M204.4,688.5c-16.8,0-30.6-13.7-30.6-30.6c0-16.9,13.7-30.6,30.6-30.6h275.3c16.9,0,30.6,13.7,30.6,30.6c0,16.9-13.7,30.6-30.6,30.6H204.4L204.4,688.5z M867.5,882.9L724.5,706.2V117.1H990v589.2L867.5,882.9L867.5,882.9z M863.7,780.7l65.1-93.7V178.8H785.7v505.7L863.7,780.7L863.7,780.7z M764.9,316v-61.2h183.5V316H764.9L764.9,316z"/></g>
</svg>